STARTFONT 2.1
FONT -Monotype-Nimrod-Bold-R-Normal--12-120-75-75-P-77-iso8859-5
SIZE 12 75 75
FONTBOUNDINGBOX 17 16 -1 -3

STARTPROPERTIES 24
FOUNDRY "Monotype"
FAMILY_NAME "Nimrod"
WEIGHT_NAME "Bold"
SLANT "R"
SETWIDTH_NAME "Normal"
ADD_STYLE_NAME ""
PIXEL_SIZE 12
POINT_SIZE 120
RESOLUTION_X 75
RESOLUTION_Y 75
SPACING "P"
AVERAGE_WIDTH 77
CHARSET_REGISTRY "iso8859"
CHARSET_ENCODING "5"
FACE_NAME "Nimrod Bold ISO Latin Cyrillic"
_DEC_DEVICE_FONTNAMES "PS=nimrod-b-latcyrillic"
COPYRIGHT "Copyright (c) 1994 Monotype Typography Ltd."
CAP_HEIGHT 11
X_HEIGHT 8
WEIGHT 10
QUAD_WIDTH 9
DEFAULT_CHAR 160
FONT_DESCENT 3
FONT_ASCENT 13
ENDPROPERTIES

CHARS 191

STARTCHAR space
ENCODING 32
SWIDTH 250 0
DWIDTH 3 0
BBX 0 0 0 0
BITMAP
ENDCHAR

STARTCHAR exclam
ENCODING 33
SWIDTH 323 0
DWIDTH 4 0
BBX 2 10 1 0
BITMAP
C0
C0
C0
C0
C0
C0
C0
00
C0
C0
ENDCHAR

STARTCHAR quotedbl
ENCODING 34
SWIDTH 552 0
DWIDTH 7 0
BBX 5 4 1 6
BITMAP
D8
D8
D8
48
ENDCHAR

STARTCHAR numbersign
ENCODING 35
SWIDTH 667 0
DWIDTH 9 0
BBX 8 10 1 0
BITMAP
12
12
12
7F
24
24
FE
48
48
48
ENDCHAR

STARTCHAR dollar
ENCODING 36
SWIDTH 542 0
DWIDTH 7 0
BBX 7 12 0 -2
BITMAP
10
7C
D6
D2
F0
7C
1E
96
D6
7C
10
10
ENDCHAR

STARTCHAR percent
ENCODING 37
SWIDTH 1000 0
DWIDTH 13 0
BBX 12 10 1 0
BITMAP
70C0
D880
D900
DB00
7200
04E0
0DB0
0BB0
11B0
30E0
ENDCHAR

STARTCHAR ampersand
ENCODING 38
SWIDTH 865 0
DWIDTH 11 0
BBX 10 10 1 0
BITMAP
1C00
3600
3600
1C00
39C0
4C80
CC80
C700
E740
7B80
ENDCHAR

STARTCHAR quoteright
ENCODING 39
SWIDTH 323 0
DWIDTH 4 0
BBX 2 4 1 6
BITMAP
C0
C0
40
80
ENDCHAR

STARTCHAR parenleft
ENCODING 40
SWIDTH 385 0
DWIDTH 5 0
BBX 4 12 1 -2
BITMAP
10
20
60
40
C0
C0
C0
C0
40
60
20
10
ENDCHAR

STARTCHAR parenright
ENCODING 41
SWIDTH 385 0
DWIDTH 5 0
BBX 4 12 0 -2
BITMAP
80
40
60
20
30
30
30
30
20
60
40
80
ENDCHAR

STARTCHAR asterisk
ENCODING 42
SWIDTH 552 0
DWIDTH 7 0
BBX 6 5 1 5
BITMAP
30
30
FC
78
CC
ENDCHAR

STARTCHAR plus
ENCODING 43
SWIDTH 667 0
DWIDTH 9 0
BBX 7 7 1 1
BITMAP
10
10
10
FE
10
10
10
ENDCHAR

STARTCHAR comma
ENCODING 44
SWIDTH 323 0
DWIDTH 4 0
BBX 2 4 1 -2
BITMAP
C0
C0
40
80
ENDCHAR

STARTCHAR minus
ENCODING 45
SWIDTH 667 0
DWIDTH 9 0
BBX 7 1 1 4
BITMAP
FE
ENDCHAR

STARTCHAR period
ENCODING 46
SWIDTH 323 0
DWIDTH 4 0
BBX 2 2 1 0
BITMAP
C0
C0
ENDCHAR

STARTCHAR slash
ENCODING 47
SWIDTH 552 0
DWIDTH 7 0
BBX 6 10 1 0
BITMAP
0C
08
18
10
30
20
60
40
C0
80
ENDCHAR

STARTCHAR zero
ENCODING 48
SWIDTH 594 0
DWIDTH 8 0
BBX 7 10 1 0
BITMAP
38
6C
C6
C6
C6
C6
C6
C6
6C
38
ENDCHAR

STARTCHAR one
ENCODING 49
SWIDTH 594 0
DWIDTH 8 0
BBX 4 10 2 0
BITMAP
20
E0
60
60
60
60
60
60
60
F0
ENDCHAR

STARTCHAR two
ENCODING 50
SWIDTH 594 0
DWIDTH 8 0
BBX 7 10 0 0
BITMAP
3C
46
66
26
04
08
10
22
7E
FC
ENDCHAR

STARTCHAR three
ENCODING 51
SWIDTH 594 0
DWIDTH 8 0
BBX 6 10 1 0
BITMAP
78
CC
4C
0C
38
0C
0C
4C
CC
78
ENDCHAR

STARTCHAR four
ENCODING 52
SWIDTH 594 0
DWIDTH 8 0
BBX 7 10 1 0
BITMAP
04
0C
1C
2C
2C
4C
8C
FE
0C
1E
ENDCHAR

STARTCHAR five
ENCODING 53
SWIDTH 594 0
DWIDTH 8 0
BBX 7 10 1 0
BITMAP
3E
7C
40
40
7C
8E
06
46
CE
7C
ENDCHAR

STARTCHAR six
ENCODING 54
SWIDTH 594 0
DWIDTH 8 0
BBX 7 10 1 0
BITMAP
3C
66
60
C0
DC
EE
C6
C6
6E
3C
ENDCHAR

STARTCHAR seven
ENCODING 55
SWIDTH 594 0
DWIDTH 8 0
BBX 6 10 1 0
BITMAP
FC
FC
8C
08
18
18
18
30
30
30
ENDCHAR

STARTCHAR eight
ENCODING 56
SWIDTH 594 0
DWIDTH 8 0
BBX 6 10 1 0
BITMAP
78
CC
CC
CC
78
CC
CC
CC
CC
78
ENDCHAR

STARTCHAR nine
ENCODING 57
SWIDTH 594 0
DWIDTH 8 0
BBX 7 10 1 0
BITMAP
78
EC
C6
C6
EE
76
06
0C
CC
78
ENDCHAR

STARTCHAR colon
ENCODING 58
SWIDTH 323 0
DWIDTH 4 0
BBX 2 7 1 0
BITMAP
C0
C0
00
00
00
C0
C0
ENDCHAR

STARTCHAR semicolon
ENCODING 59
SWIDTH 323 0
DWIDTH 4 0
BBX 2 9 1 -2
BITMAP
C0
C0
00
00
00
C0
C0
40
80
ENDCHAR

STARTCHAR less
ENCODING 60
SWIDTH 667 0
DWIDTH 9 0
BBX 7 7 1 1
BITMAP
02
0C
30
C0
30
0C
02
ENDCHAR

STARTCHAR equal
ENCODING 61
SWIDTH 667 0
DWIDTH 9 0
BBX 7 3 1 3
BITMAP
FE
00
FE
ENDCHAR

STARTCHAR greater
ENCODING 62
SWIDTH 667 0
DWIDTH 9 0
BBX 7 7 1 1
BITMAP
80
60
18
06
18
60
80
ENDCHAR

STARTCHAR question
ENCODING 63
SWIDTH 500 0
DWIDTH 7 0
BBX 6 10 1 0
BITMAP
78
CC
4C
0C
18
30
20
00
30
30
ENDCHAR

STARTCHAR at
ENCODING 64
SWIDTH 927 0
DWIDTH 12 0
BBX 11 12 1 -2
BITMAP
0F00
30C0
4040
4520
8B20
9B40
9A40
9E80
4B20
4040
3180
0E00
ENDCHAR

STARTCHAR A
ENCODING 65
SWIDTH 854 0
DWIDTH 11 0
BBX 11 10 0 0
BITMAP
0400
0400
0E00
0E00
1300
1300
3F80
2180
40C0
E1E0
ENDCHAR

STARTCHAR B
ENCODING 66
SWIDTH 792 0
DWIDTH 10 0
BBX 9 10 1 0
BITMAP
FF00
6180
6180
6100
7E00
6100
6180
6180
6180
FF00
ENDCHAR

STARTCHAR C
ENCODING 67
SWIDTH 750 0
DWIDTH 10 0
BBX 9 10 1 0
BITMAP
1F00
7180
6080
C000
C000
C000
C000
6080
7180
1F00
ENDCHAR

STARTCHAR D
ENCODING 68
SWIDTH 823 0
DWIDTH 11 0
BBX 9 10 1 0
BITMAP
FC00
6700
6300
6180
6180
6180
6180
6300
6700
FC00
ENDCHAR

STARTCHAR E
ENCODING 69
SWIDTH 750 0
DWIDTH 10 0
BBX 8 10 1 0
BITMAP
FF
63
61
64
7C
64
61
61
63
FF
ENDCHAR

STARTCHAR F
ENCODING 70
SWIDTH 698 0
DWIDTH 9 0
BBX 8 10 1 0
BITMAP
FF
63
61
64
7C
64
60
60
60
F0
ENDCHAR

STARTCHAR G
ENCODING 71
SWIDTH 854 0
DWIDTH 11 0
BBX 10 10 1 0
BITMAP
1F00
7180
6080
C000
C000
C3C0
C180
6180
7180
1F00
ENDCHAR

STARTCHAR H
ENCODING 72
SWIDTH 865 0
DWIDTH 11 0
BBX 10 10 1 0
BITMAP
F3C0
6180
6180
6180
7F80
6180
6180
6180
6180
F3C0
ENDCHAR

STARTCHAR I
ENCODING 73
SWIDTH 448 0
DWIDTH 6 0
BBX 4 10 1 0
BITMAP
F0
60
60
60
60
60
60
60
60
F0
ENDCHAR

STARTCHAR J
ENCODING 74
SWIDTH 635 0
DWIDTH 8 0
BBX 7 10 1 0
BITMAP
1E
0C
0C
0C
0C
0C
4C
CC
8C
78
ENDCHAR

STARTCHAR K
ENCODING 75
SWIDTH 854 0
DWIDTH 11 0
BBX 10 10 1 0
BITMAP
F780
6300
6200
6400
6C00
7600
6300
6300
6180
F3C0
ENDCHAR

STARTCHAR L
ENCODING 76
SWIDTH 708 0
DWIDTH 9 0
BBX 8 10 1 0
BITMAP
F0
60
60
60
60
60
61
61
63
FF
ENDCHAR

STARTCHAR M
ENCODING 77
SWIDTH 1052 0
DWIDTH 13 0
BBX 12 10 1 0
BITMAP
F0F0
70E0
70E0
5960
5960
5960
4E60
4E60
4460
E4F0
ENDCHAR

STARTCHAR N
ENCODING 78
SWIDTH 833 0
DWIDTH 11 0
BBX 10 10 1 0
BITMAP
E1C0
7080
5880
5880
4C80
4C80
4680
4680
4380
E180
ENDCHAR

STARTCHAR O
ENCODING 79
SWIDTH 823 0
DWIDTH 11 0
BBX 10 10 1 0
BITMAP
1E00
7380
6180
C0C0
C0C0
C0C0
C0C0
6180
7380
1E00
ENDCHAR

STARTCHAR P
ENCODING 80
SWIDTH 729 0
DWIDTH 9 0
BBX 8 10 1 0
BITMAP
FE
67
63
63
67
7E
60
60
60
F0
ENDCHAR

STARTCHAR Q
ENCODING 81
SWIDTH 823 0
DWIDTH 11 0
BBX 10 11 1 -1
BITMAP
1E00
7380
6180
C0C0
C0C0
D8C0
E4C0
6580
7380
1E00
01C0
ENDCHAR

STARTCHAR R
ENCODING 82
SWIDTH 802 0
DWIDTH 10 0
BBX 9 10 1 0
BITMAP
FE00
6700
6300
6300
6700
7E00
6C00
6600
6300
F380
ENDCHAR

STARTCHAR S
ENCODING 83
SWIDTH 646 0
DWIDTH 8 0
BBX 7 10 1 0
BITMAP
7C
C6
C2
E0
78
3C
0E
86
C6
7C
ENDCHAR

STARTCHAR T
ENCODING 84
SWIDTH 729 0
DWIDTH 9 0
BBX 8 10 1 0
BITMAP
FF
DB
99
99
18
18
18
18
18
3C
ENDCHAR

STARTCHAR U
ENCODING 85
SWIDTH 802 0
DWIDTH 10 0
BBX 9 10 1 0
BITMAP
F380
6100
6100
6100
6100
6100
6100
6100
7100
3E00
ENDCHAR

STARTCHAR V
ENCODING 86
SWIDTH 823 0
DWIDTH 11 0
BBX 10 10 1 0
BITMAP
F1C0
6080
6080
3100
3100
1900
1A00
0E00
0C00
0400
ENDCHAR

STARTCHAR W
ENCODING 87
SWIDTH 1104 0
DWIDTH 14 0
BBX 14 10 0 0
BITMAP
F3DC
6188
6188
3388
32D0
32D0
1C70
1C70
0C60
0820
ENDCHAR

STARTCHAR X
ENCODING 88
SWIDTH 802 0
DWIDTH 10 0
BBX 10 10 0 0
BITMAP
F3C0
6180
3100
1A00
0C00
0C00
1600
2300
6180
F3C0
ENDCHAR

STARTCHAR Y
ENCODING 89
SWIDTH 792 0
DWIDTH 10 0
BBX 10 10 0 0
BITMAP
F1C0
6080
3100
3200
1C00
0C00
0C00
0C00
0C00
1E00
ENDCHAR

STARTCHAR Z
ENCODING 90
SWIDTH 667 0
DWIDTH 9 0
BBX 7 10 1 0
BITMAP
FE
CC
8C
18
18
30
32
62
66
FE
ENDCHAR

STARTCHAR bracketleft
ENCODING 91
SWIDTH 396 0
DWIDTH 5 0
BBX 4 12 1 -2
BITMAP
F0
C0
C0
C0
C0
C0
C0
C0
C0
C0
C0
F0
ENDCHAR

STARTCHAR backslash
ENCODING 92
SWIDTH 552 0
DWIDTH 7 0
BBX 6 10 1 0
BITMAP
80
C0
40
60
20
30
10
18
08
0C
ENDCHAR

STARTCHAR bracketright
ENCODING 93
SWIDTH 396 0
DWIDTH 5 0
BBX 4 12 0 -2
BITMAP
F0
30
30
30
30
30
30
30
30
30
30
F0
ENDCHAR

STARTCHAR asciicircum
ENCODING 94
SWIDTH 583 0
DWIDTH 8 0
BBX 5 4 2 6
BITMAP
20
70
50
88
ENDCHAR

STARTCHAR underscore
ENCODING 95
SWIDTH 500 0
DWIDTH 7 0
BBX 7 1 0 -3
BITMAP
FE
ENDCHAR

STARTCHAR quoteleft
ENCODING 96
SWIDTH 323 0
DWIDTH 4 0
BBX 2 4 1 6
BITMAP
40
80
C0
C0
ENDCHAR

STARTCHAR a
ENCODING 97
SWIDTH 615 0
DWIDTH 8 0
BBX 7 7 1 0
BITMAP
78
CC
0C
7C
CC
DC
76
ENDCHAR

STARTCHAR b
ENCODING 98
SWIDTH 646 0
DWIDTH 8 0
BBX 8 10 0 0
BITMAP
E0
60
60
6E
77
63
63
63
77
6E
ENDCHAR

STARTCHAR c
ENCODING 99
SWIDTH 542 0
DWIDTH 7 0
BBX 6 7 1 0
BITMAP
78
EC
C4
C0
C0
E4
78
ENDCHAR

STARTCHAR d
ENCODING 100
SWIDTH 646 0
DWIDTH 9 0
BBX 8 10 1 0
BITMAP
1E
06
06
76
EE
C6
C6
C6
EE
77
ENDCHAR

STARTCHAR e
ENCODING 101
SWIDTH 562 0
DWIDTH 7 0
BBX 6 7 1 0
BITMAP
78
CC
CC
FC
C0
C4
78
ENDCHAR

STARTCHAR f
ENCODING 102
SWIDTH 406 0
DWIDTH 5 0
BBX 5 10 1 0
BITMAP
38
68
60
F0
60
60
60
60
60
F0
ENDCHAR

STARTCHAR g
ENCODING 103
SWIDTH 604 0
DWIDTH 8 0
BBX 8 9 1 -2
BITMAP
3F
66
66
3C
60
3C
7E
C6
7C
ENDCHAR

STARTCHAR h
ENCODING 104
SWIDTH 698 0
DWIDTH 9 0
BBX 8 10 1 0
BITMAP
E0
60
60
6C
76
66
66
66
66
F7
ENDCHAR

STARTCHAR i
ENCODING 105
SWIDTH 385 0
DWIDTH 5 0
BBX 4 10 1 0
BITMAP
60
60
00
E0
60
60
60
60
60
F0
ENDCHAR

STARTCHAR j
ENCODING 106
SWIDTH 375 0
DWIDTH 5 0
BBX 5 12 -1 -2
BITMAP
18
18
00
38
18
18
18
18
18
18
D8
70
ENDCHAR

STARTCHAR k
ENCODING 107
SWIDTH 698 0
DWIDTH 9 0
BBX 8 10 1 0
BITMAP
E0
60
60
6E
64
68
78
6C
66
F7
ENDCHAR

STARTCHAR l
ENCODING 108
SWIDTH 385 0
DWIDTH 5 0
BBX 4 10 1 0
BITMAP
E0
60
60
60
60
60
60
60
60
F0
ENDCHAR

STARTCHAR m
ENCODING 109
SWIDTH 1000 0
DWIDTH 13 0
BBX 12 7 1 0
BITMAP
ECC0
7760
6660
6660
6660
6660
F770
ENDCHAR

STARTCHAR n
ENCODING 110
SWIDTH 698 0
DWIDTH 9 0
BBX 8 7 1 0
BITMAP
EC
76
66
66
66
66
F7
ENDCHAR

STARTCHAR o
ENCODING 111
SWIDTH 615 0
DWIDTH 8 0
BBX 7 7 1 0
BITMAP
7C
EE
C6
C6
C6
EE
7C
ENDCHAR

STARTCHAR p
ENCODING 112
SWIDTH 646 0
DWIDTH 9 0
BBX 8 9 1 -2
BITMAP
EE
77
63
63
63
77
6E
60
F0
ENDCHAR

STARTCHAR q
ENCODING 113
SWIDTH 646 0
DWIDTH 9 0
BBX 8 9 1 -2
BITMAP
7A
EE
C6
C6
C6
EE
76
06
0F
ENDCHAR

STARTCHAR r
ENCODING 114
SWIDTH 542 0
DWIDTH 7 0
BBX 7 7 1 0
BITMAP
EC
76
60
60
60
60
F0
ENDCHAR

STARTCHAR s
ENCODING 115
SWIDTH 510 0
DWIDTH 6 0
BBX 5 7 1 0
BITMAP
78
C8
E0
70
38
98
F0
ENDCHAR

STARTCHAR t
ENCODING 116
SWIDTH 427 0
DWIDTH 6 0
BBX 5 10 1 0
BITMAP
20
20
60
F8
60
60
60
60
68
30
ENDCHAR

STARTCHAR u
ENCODING 117
SWIDTH 698 0
DWIDTH 9 0
BBX 8 7 1 0
BITMAP
EE
66
66
66
66
6E
37
ENDCHAR

STARTCHAR v
ENCODING 118
SWIDTH 635 0
DWIDTH 7 0
BBX 8 7 0 0
BITMAP
F7
62
32
34
1C
18
08
ENDCHAR

STARTCHAR w
ENCODING 119
SWIDTH 906 0
DWIDTH 11 0
BBX 12 7 0 0
BITMAP
F770
6620
6340
3740
3B80
1980
1100
ENDCHAR

STARTCHAR x
ENCODING 120
SWIDTH 646 0
DWIDTH 8 0
BBX 8 7 0 0
BITMAP
F7
62
3C
18
3C
46
EF
ENDCHAR

STARTCHAR y
ENCODING 121
SWIDTH 635 0
DWIDTH 8 0
BBX 8 9 0 -2
BITMAP
F7
62
32
34
1C
18
08
D0
60
ENDCHAR

STARTCHAR z
ENCODING 122
SWIDTH 521 0
DWIDTH 7 0
BBX 6 7 1 0
BITMAP
FC
98
B0
30
64
64
FC
ENDCHAR

STARTCHAR braceleft
ENCODING 123
SWIDTH 396 0
DWIDTH 5 0
BBX 4 12 1 -2
BITMAP
30
60
60
60
60
C0
60
60
60
60
60
30
ENDCHAR

STARTCHAR bar
ENCODING 124
SWIDTH 542 0
DWIDTH 7 0
BBX 2 10 3 0
BITMAP
C0
C0
C0
C0
C0
C0
C0
C0
C0
C0
ENDCHAR

STARTCHAR braceright
ENCODING 125
SWIDTH 396 0
DWIDTH 5 0
BBX 4 12 1 -2
BITMAP
C0
60
60
60
60
30
60
60
60
60
60
C0
ENDCHAR

STARTCHAR asciitilde
ENCODING 126
SWIDTH 667 0
DWIDTH 9 0
BBX 7 2 1 3
BITMAP
72
9C
ENDCHAR

STARTCHAR space
ENCODING 160
SWIDTH 250 0
DWIDTH 4 0
BBX 0 0 0 0
BITMAP
ENDCHAR

STARTCHAR afii10023
ENCODING 161
SWIDTH 719 0
DWIDTH 10 0
BBX 8 13 1 0
BITMAP
66
66
00
FF
63
61
64
7C
64
61
61
63
FF
ENDCHAR

STARTCHAR afii10051
ENCODING 162
SWIDTH 927 0
DWIDTH 11 0
BBX 11 10 0 0
BITMAP
FF00
DB00
9900
1800
1BC0
1CE0
1860
1860
1860
3DC0
ENDCHAR

STARTCHAR afii10052
ENCODING 163
SWIDTH 687 0
DWIDTH 9 0
BBX 8 13 1 0
BITMAP
0C
18
00
FF
63
61
60
60
60
60
60
60
F0
ENDCHAR

STARTCHAR afii10053
ENCODING 164
SWIDTH 750 0
DWIDTH 9 0
BBX 8 10 1 0
BITMAP
1E
73
61
C0
FC
C0
C1
61
73
1C
ENDCHAR

STARTCHAR afii10054
ENCODING 165
SWIDTH 646 0
DWIDTH 8 0
BBX 7 10 1 0
BITMAP
7C
C6
C2
E0
78
3C
0E
86
C6
7C
ENDCHAR

STARTCHAR afii10055
ENCODING 166
SWIDTH 448 0
DWIDTH 6 0
BBX 4 10 1 0
BITMAP
F0
60
60
60
60
60
60
60
60
F0
ENDCHAR

STARTCHAR afii10056
ENCODING 167
SWIDTH 448 0
DWIDTH 6 0
BBX 6 13 0 0
BITMAP
CC
CC
00
78
30
30
30
30
30
30
30
30
78
ENDCHAR

STARTCHAR afii10057
ENCODING 168
SWIDTH 635 0
DWIDTH 8 0
BBX 7 10 1 0
BITMAP
1E
0C
0C
0C
0C
0C
4C
CC
8C
78
ENDCHAR

STARTCHAR afii10058
ENCODING 169
SWIDTH 1164 0
DWIDTH 15 0
BBX 15 10 0 0
BITMAP
3FC0
1180
1180
1180
11FC
1186
1186
9186
D186
63FC
ENDCHAR

STARTCHAR afii10059
ENCODING 170
SWIDTH 1171 0
DWIDTH 15 0
BBX 14 10 1 0
BITMAP
F780
6300
6300
6300
7FF8
630C
630C
630C
630C
F7F8
ENDCHAR

STARTCHAR afii10060
ENCODING 171
SWIDTH 946 0
DWIDTH 12 0
BBX 12 10 0 0
BITMAP
FF00
DB00
9900
1800
1BC0
1C60
1860
1860
1860
3CF0
ENDCHAR

STARTCHAR afii10061
ENCODING 172
SWIDTH 831 0
DWIDTH 10 0
BBX 9 13 1 0
BITMAP
0600
0C00
0000
F380
6480
6400
6800
6C00
7600
6600
6300
6300
F180
ENDCHAR

STARTCHAR hyphen
ENCODING 173
SWIDTH 323 0
DWIDTH 4 0
BBX 4 1 0 3
BITMAP
F0
ENDCHAR

STARTCHAR afii10062
ENCODING 174
SWIDTH 748 0
DWIDTH 10 0
BBX 9 13 1 0
BITMAP
3600
1C00
0000
F380
6100
3100
3200
1A00
1A00
0C00
4400
6800
3000
ENDCHAR

STARTCHAR afii10145
ENCODING 175
SWIDTH 865 0
DWIDTH 11 0
BBX 10 12 1 -2
BITMAP
F3C0
6180
6180
6180
6180
6180
6180
6180
6180
FFC0
0C00
0C00
ENDCHAR

STARTCHAR afii10017
ENCODING 176
SWIDTH 854 0
DWIDTH 11 0
BBX 11 10 0 0
BITMAP
0400
0400
0E00
0E00
1300
1300
3F80
2180
40C0
E1E0
ENDCHAR

STARTCHAR afii10018
ENCODING 177
SWIDTH 792 0
DWIDTH 10 0
BBX 9 10 1 0
BITMAP
FF80
6180
6080
6000
7F00
6180
6180
6180
6180
FF00
ENDCHAR

STARTCHAR afii10019
ENCODING 178
SWIDTH 792 0
DWIDTH 10 0
BBX 9 10 1 0
BITMAP
FF00
6180
6180
6100
7E00
6100
6180
6180
6180
FF00
ENDCHAR

STARTCHAR afii10020
ENCODING 179
SWIDTH 687 0
DWIDTH 9 0
BBX 8 10 1 0
BITMAP
FF
63
61
60
60
60
60
60
60
F0
ENDCHAR

STARTCHAR afii10021
ENCODING 180
SWIDTH 813 0
DWIDTH 10 0
BBX 10 12 0 -2
BITMAP
3FC0
1180
1180
1180
1180
2180
2180
2180
4180
FFC0
C0C0
8040
ENDCHAR

STARTCHAR afii10022
ENCODING 181
SWIDTH 719 0
DWIDTH 10 0
BBX 8 10 1 0
BITMAP
FF
63
61
64
7C
64
61
61
63
FF
ENDCHAR

STARTCHAR afii10024
ENCODING 182
SWIDTH 1189 0
DWIDTH 15 0
BBX 14 10 1 0
BITMAP
E79C
9324
1320
0B40
1FE0
3330
3330
6318
6318
E79C
ENDCHAR

STARTCHAR afii10025
ENCODING 183
SWIDTH 689 0
DWIDTH 9 0
BBX 8 10 1 0
BITMAP
7E
67
43
03
1E
06
03
83
47
3E
ENDCHAR

STARTCHAR afii10026
ENCODING 184
SWIDTH 880 0
DWIDTH 11 0
BBX 10 10 1 0
BITMAP
F3C0
6180
6180
6380
6580
6980
7180
6180
6180
F3C0
ENDCHAR

STARTCHAR afii10027
ENCODING 185
SWIDTH 880 0
DWIDTH 11 0
BBX 10 13 1 0
BITMAP
1B00
0E00
0000
F3C0
6180
6180
6380
6580
6980
7180
6180
6180
F3C0
ENDCHAR

STARTCHAR afii10028
ENCODING 186
SWIDTH 831 0
DWIDTH 10 0
BBX 9 10 1 0
BITMAP
F380
6480
6400
6800
6C00
7600
6600
6300
6300
F180
ENDCHAR

STARTCHAR afii10029
ENCODING 187
SWIDTH 844 0
DWIDTH 10 0
BBX 10 10 0 0
BITMAP
3FC0
1180
1180
1180
1180
1180
1180
9180
D180
63C0
ENDCHAR

STARTCHAR afii10030
ENCODING 188
SWIDTH 1052 0
DWIDTH 13 0
BBX 12 10 1 0
BITMAP
F0F0
70E0
70E0
5960
5960
5960
4E60
4E60
4460
E4F0
ENDCHAR

STARTCHAR afii10031
ENCODING 189
SWIDTH 865 0
DWIDTH 11 0
BBX 10 10 1 0
BITMAP
F3C0
6180
6180
6180
7F80
6180
6180
6180
6180
F3C0
ENDCHAR

STARTCHAR afii10032
ENCODING 190
SWIDTH 823 0
DWIDTH 11 0
BBX 10 10 1 0
BITMAP
1E00
7380
6180
C0C0
C0C0
C0C0
C0C0
6180
7380
1E00
ENDCHAR

STARTCHAR afii10033
ENCODING 191
SWIDTH 865 0
DWIDTH 11 0
BBX 10 10 1 0
BITMAP
FFC0
6180
6180
6180
6180
6180
6180
6180
6180
F3C0
ENDCHAR

STARTCHAR afii10034
ENCODING 192
SWIDTH 729 0
DWIDTH 9 0
BBX 8 10 1 0
BITMAP
FE
67
63
63
67
7E
60
60
60
F0
ENDCHAR

STARTCHAR afii10035
ENCODING 193
SWIDTH 750 0
DWIDTH 10 0
BBX 9 10 1 0
BITMAP
1F00
7180
6080
C000
C000
C000
C000
6080
7180
1F00
ENDCHAR

STARTCHAR afii10036
ENCODING 194
SWIDTH 729 0
DWIDTH 9 0
BBX 8 10 1 0
BITMAP
FF
DB
99
99
18
18
18
18
18
3C
ENDCHAR

STARTCHAR afii10037
ENCODING 195
SWIDTH 748 0
DWIDTH 10 0
BBX 9 10 1 0
BITMAP
F380
6100
3100
3200
1A00
1A00
0C00
4400
6800
3000
ENDCHAR

STARTCHAR afii10038
ENCODING 196
SWIDTH 934 0
DWIDTH 11 0
BBX 10 10 1 0
BITMAP
1E00
0C00
7F80
CCC0
CCC0
CCC0
CCC0
7F80
0C00
1E00
ENDCHAR

STARTCHAR afii10039
ENCODING 197
SWIDTH 802 0
DWIDTH 10 0
BBX 10 10 0 0
BITMAP
F3C0
6180
3100
1A00
0C00
0C00
1600
2300
6180
F3C0
ENDCHAR

STARTCHAR afii10040
ENCODING 198
SWIDTH 882 0
DWIDTH 11 0
BBX 10 12 1 -2
BITMAP
F3C0
6180
6180
6180
6180
6180
6180
6180
6180
FFC0
00C0
0040
ENDCHAR

STARTCHAR afii10041
ENCODING 199
SWIDTH 817 0
DWIDTH 11 0
BBX 10 10 1 0
BITMAP
F3C0
6180
6180
6180
6380
3D80
0180
0180
0180
03C0
ENDCHAR

STARTCHAR afii10042
ENCODING 200
SWIDTH 1133 0
DWIDTH 15 0
BBX 14 10 1 0
BITMAP
F7BC
6318
6318
6318
6318
6318
6318
6318
6318
FFFC
ENDCHAR

STARTCHAR afii10043
ENCODING 201
SWIDTH 1153 0
DWIDTH 15 0
BBX 14 12 1 -2
BITMAP
F7BC
6318
6318
6318
6318
6318
6318
6318
6318
FFFC
000C
0004
ENDCHAR

STARTCHAR afii10044
ENCODING 202
SWIDTH 937 0
DWIDTH 11 0
BBX 11 10 0 0
BITMAP
FC00
9800
9800
1800
1FC0
1860
1860
1860
1860
3FC0
ENDCHAR

STARTCHAR afii10045
ENCODING 203
SWIDTH 1177 0
DWIDTH 15 0
BBX 14 10 1 0
BITMAP
F03C
6018
6018
6018
7F18
6198
6198
6198
6198
FF3C
ENDCHAR

STARTCHAR afii10046
ENCODING 204
SWIDTH 781 0
DWIDTH 10 0
BBX 9 10 1 0
BITMAP
F000
6000
6000
6000
7F00
6180
6180
6180
6180
FF00
ENDCHAR

STARTCHAR afii10047
ENCODING 205
SWIDTH 750 0
DWIDTH 9 0
BBX 8 10 1 0
BITMAP
78
CE
86
03
3F
03
83
86
CE
38
ENDCHAR

STARTCHAR afii10048
ENCODING 206
SWIDTH 1219 0
DWIDTH 16 0
BBX 15 10 1 0
BITMAP
F0F0
639C
630C
6606
7E06
6606
6606
630C
639C
F0F0
ENDCHAR

STARTCHAR afii10049
ENCODING 207
SWIDTH 802 0
DWIDTH 10 0
BBX 9 10 1 0
BITMAP
3F80
7300
6300
6300
7300
3F00
1B00
3300
6300
E780
ENDCHAR

STARTCHAR afii10065
ENCODING 208
SWIDTH 615 0
DWIDTH 8 0
BBX 7 7 1 0
BITMAP
78
CC
0C
7C
CC
DC
76
ENDCHAR

STARTCHAR afii10066
ENCODING 209
SWIDTH 615 0
DWIDTH 8 0
BBX 7 10 1 0
BITMAP
06
7C
C0
BC
EE
C6
C6
C6
EE
7C
ENDCHAR

STARTCHAR afii10067
ENCODING 210
SWIDTH 646 0
DWIDTH 8 0
BBX 7 7 1 0
BITMAP
FC
66
66
7C
66
66
FC
ENDCHAR

STARTCHAR afii10068
ENCODING 211
SWIDTH 577 0
DWIDTH 8 0
BBX 7 7 1 0
BITMAP
FE
66
62
60
60
60
F0
ENDCHAR

STARTCHAR afii10069
ENCODING 212
SWIDTH 662 0
DWIDTH 8 0
BBX 8 9 0 -2
BITMAP
7F
26
26
26
26
46
FF
C3
81
ENDCHAR

STARTCHAR afii10070
ENCODING 213
SWIDTH 562 0
DWIDTH 7 0
BBX 6 7 1 0
BITMAP
78
CC
CC
FC
C0
C4
78
ENDCHAR

STARTCHAR afii10072
ENCODING 214
SWIDTH 936 0
DWIDTH 13 0
BBX 12 7 1 0
BITMAP
EF70
A650
1680
0F00
36C0
6660
EF70
ENDCHAR

STARTCHAR afii10073
ENCODING 215
SWIDTH 531 0
DWIDTH 7 0
BBX 6 7 1 0
BITMAP
78
4C
0C
18
8C
CC
78
ENDCHAR

STARTCHAR afii10074
ENCODING 216
SWIDTH 708 0
DWIDTH 9 0
BBX 8 7 1 0
BITMAP
F7
66
66
6E
76
66
EF
ENDCHAR

STARTCHAR afii10075
ENCODING 217
SWIDTH 708 0
DWIDTH 9 0
BBX 8 10 1 0
BITMAP
36
1C
00
F7
66
66
6E
76
66
EF
ENDCHAR

STARTCHAR afii10076
ENCODING 218
SWIDTH 677 0
DWIDTH 9 0
BBX 8 7 1 0
BITMAP
F6
6B
68
70
6C
66
F7
ENDCHAR

STARTCHAR afii10077
ENCODING 219
SWIDTH 698 0
DWIDTH 9 0
BBX 9 7 0 0
BITMAP
3F80
1300
1300
1300
1300
D300
6780
ENDCHAR

STARTCHAR afii10078
ENCODING 220
SWIDTH 854 0
DWIDTH 11 0
BBX 10 7 1 0
BITMAP
E1C0
6380
7580
5580
5D80
4980
EBC0
ENDCHAR

STARTCHAR afii10079
ENCODING 221
SWIDTH 713 0
DWIDTH 9 0
BBX 8 7 1 0
BITMAP
F7
66
66
7E
66
66
EF
ENDCHAR

STARTCHAR afii10080
ENCODING 222
SWIDTH 614 0
DWIDTH 8 0
BBX 7 7 1 0
BITMAP
7C
EE
C6
C6
C6
EE
7C
ENDCHAR

STARTCHAR afii10081
ENCODING 223
SWIDTH 708 0
DWIDTH 9 0
BBX 8 7 1 0
BITMAP
FF
66
66
66
66
66
E7
ENDCHAR

STARTCHAR afii10082
ENCODING 224
SWIDTH 656 0
DWIDTH 9 0
BBX 8 9 1 -2
BITMAP
EE
77
63
63
63
77
6E
60
F0
ENDCHAR

STARTCHAR afii10083
ENCODING 225
SWIDTH 542 0
DWIDTH 7 0
BBX 6 7 1 0
BITMAP
78
EC
C4
C0
C0
E4
78
ENDCHAR

STARTCHAR afii10084
ENCODING 226
SWIDTH 598 0
DWIDTH 8 0
BBX 8 7 0 0
BITMAP
FF
DB
99
18
18
18
3C
ENDCHAR

STARTCHAR afii10085
ENCODING 227
SWIDTH 594 0
DWIDTH 8 0
BBX 8 9 0 -2
BITMAP
F7
62
32
34
1C
18
08
D0
60
ENDCHAR

STARTCHAR afii10086
ENCODING 228
SWIDTH 823 0
DWIDTH 11 0
BBX 10 12 1 -2
BITMAP
0400
1C00
0C00
6D80
DEC0
CCC0
CCC0
CCC0
DEC0
6D80
0C00
1E00
ENDCHAR

STARTCHAR afii10087
ENCODING 229
SWIDTH 646 0
DWIDTH 8 0
BBX 8 7 0 0
BITMAP
F7
62
3C
18
3C
46
EF
ENDCHAR

STARTCHAR afii10088
ENCODING 230
SWIDTH 711 0
DWIDTH 9 0
BBX 8 9 1 -2
BITMAP
F7
66
66
66
66
66
FF
03
01
ENDCHAR

STARTCHAR afii10089
ENCODING 231
SWIDTH 698 0
DWIDTH 8 0
BBX 8 7 0 0
BITMAP
F7
66
6E
36
06
06
0F
ENDCHAR

STARTCHAR afii10090
ENCODING 232
SWIDTH 1047 0
DWIDTH 13 0
BBX 12 7 1 0
BITMAP
F6F0
6660
6660
6660
6660
6660
FFF0
ENDCHAR

STARTCHAR afii10091
ENCODING 233
SWIDTH 1055 0
DWIDTH 13 0
BBX 12 9 1 -2
BITMAP
F6F0
6660
6660
6660
6660
6660
FFF0
0030
0010
ENDCHAR

STARTCHAR afii10092
ENCODING 234
SWIDTH 740 0
DWIDTH 9 0
BBX 9 7 0 0
BITMAP
FC00
9800
9800
1F00
1980
1980
3F00
ENDCHAR

STARTCHAR afii10093
ENCODING 235
SWIDTH 948 0
DWIDTH 12 0
BBX 11 7 1 0
BITMAP
F1E0
60C0
60C0
7CC0
66C0
66C0
FDE0
ENDCHAR

STARTCHAR afii10094
ENCODING 236
SWIDTH 635 0
DWIDTH 8 0
BBX 7 7 1 0
BITMAP
F0
60
60
7C
66
66
FC
ENDCHAR

STARTCHAR afii10095
ENCODING 237
SWIDTH 567 0
DWIDTH 7 0
BBX 6 7 1 0
BITMAP
F8
CC
8C
3C
8C
CC
78
ENDCHAR

STARTCHAR afii10096
ENCODING 238
SWIDTH 935 0
DWIDTH 12 0
BBX 11 7 1 0
BITMAP
F7C0
6EE0
6C60
7C60
6C60
6EE0
F7C0
ENDCHAR

STARTCHAR afii10097
ENCODING 239
SWIDTH 669 0
DWIDTH 9 0
BBX 8 7 1 0
BITMAP
3F
66
66
3E
36
66
EF
ENDCHAR

STARTCHAR afii61352
ENCODING 240
SWIDTH 1115 0
DWIDTH 14 0
BBX 14 10 0 0
BITMAP
7060
38A0
3880
2C98
2CA4
26A4
26A4
2398
A380
C1BC
ENDCHAR

STARTCHAR afii10071
ENCODING 241
SWIDTH 562 0
DWIDTH 7 0
BBX 6 10 1 0
BITMAP
CC
CC
00
78
CC
CC
FC
C0
C4
78
ENDCHAR

STARTCHAR afii10099
ENCODING 242
SWIDTH 646 0
DWIDTH 9 0
BBX 7 12 1 -2
BITMAP
60
FC
60
6C
76
66
66
66
66
F6
06
0C
ENDCHAR

STARTCHAR afii10100
ENCODING 243
SWIDTH 581 0
DWIDTH 8 0
BBX 7 10 1 0
BITMAP
0C
18
00
FE
66
62
60
60
60
F0
ENDCHAR

STARTCHAR afii10101
ENCODING 244
SWIDTH 552 0
DWIDTH 7 0
BBX 6 7 1 0
BITMAP
7C
CC
C4
F0
C4
CC
78
ENDCHAR

STARTCHAR afii10102
ENCODING 245
SWIDTH 500 0
DWIDTH 6 0
BBX 5 7 1 0
BITMAP
78
C8
E0
70
38
98
F0
ENDCHAR

STARTCHAR afii10103
ENCODING 246
SWIDTH 396 0
DWIDTH 5 0
BBX 4 10 1 0
BITMAP
60
60
00
E0
60
60
60
60
60
F0
ENDCHAR

STARTCHAR afii10104
ENCODING 247
SWIDTH 396 0
DWIDTH 5 0
BBX 6 10 0 0
BITMAP
CC
CC
00
70
30
30
30
30
30
78
ENDCHAR

STARTCHAR afii10105
ENCODING 248
SWIDTH 375 0
DWIDTH 5 0
BBX 5 12 -1 -2
BITMAP
18
18
00
38
18
18
18
18
18
18
D8
70
ENDCHAR

STARTCHAR afii10106
ENCODING 249
SWIDTH 967 0
DWIDTH 12 0
BBX 12 7 0 0
BITMAP
3F80
1300
1300
13E0
1330
D330
67E0
ENDCHAR

STARTCHAR afii10107
ENCODING 250
SWIDTH 969 0
DWIDTH 12 0
BBX 11 7 1 0
BITMAP
EF00
6600
6600
7FC0
6660
6660
EFC0
ENDCHAR

STARTCHAR afii10108
ENCODING 251
SWIDTH 708 0
DWIDTH 9 0
BBX 8 10 1 0
BITMAP
60
FC
60
6C
76
66
66
66
66
F7
ENDCHAR

STARTCHAR afii10109
ENCODING 252
SWIDTH 677 0
DWIDTH 9 0
BBX 8 10 1 0
BITMAP
0C
18
00
F6
6B
68
70
6C
66
F7
ENDCHAR

STARTCHAR section
ENCODING 253
SWIDTH 531 0
DWIDTH 6 0
BBX 5 12 1 -2
BITMAP
70
98
C0
60
B0
98
C8
68
30
18
C8
70
ENDCHAR

STARTCHAR afii10110
ENCODING 254
SWIDTH 594 0
DWIDTH 8 0
BBX 8 12 0 -2
BITMAP
36
1C
00
F7
62
32
34
1C
18
08
D0
60
ENDCHAR

STARTCHAR afii10193
ENCODING 255
SWIDTH 708 0
DWIDTH 9 0
BBX 8 9 1 -2
BITMAP
E7
66
66
66
66
66
FF
18
18
ENDCHAR
ENDFONT
